<svg id="visual" viewBox="0 0 960 540" width="960" height="540" xmlns="http://www.w3.org/2000/svg" xmlns:xlink="http://www.w3.org/1999/xlink" version="1.1"><rect x="0" y="0" width="960" height="540" fill="#000000"></rect><path d="M0 276L22.8 272.2C45.7 268.3 91.3 260.7 137 248.8C182.7 237 228.3 221 274 234.3C319.7 247.7 365.3 290.3 411.2 299.3C457 308.3 503 283.7 548.8 277.7C594.7 271.7 640.3 284.3 686 291.5C731.7 298.7 777.3 300.3 823 286C868.7 271.7 914.3 241.3 937.2 226.2L960 211L960 541L937.2 541C914.3 541 868.7 541 823 541C777.3 541 731.7 541 686 541C640.3 541 594.7 541 548.8 541C503 541 457 541 411.2 541C365.3 541 319.7 541 274 541C228.3 541 182.7 541 137 541C91.3 541 45.7 541 22.8 541L0 541Z" fill="#4e4e4e"></path><path d="M0 266L22.8 265.8C45.7 265.7 91.3 265.3 137 269C182.7 272.7 228.3 280.3 274 294.3C319.7 308.3 365.3 328.7 411.2 322.7C457 316.7 503 284.3 548.8 286.8C594.7 289.3 640.3 326.7 686 329.5C731.7 332.3 777.3 300.7 823 284.7C868.7 268.7 914.3 268.3 937.2 268.2L960 268L960 541L937.2 541C914.3 541 868.7 541 823 541C777.3 541 731.7 541 686 541C640.3 541 594.7 541 548.8 541C503 541 457 541 411.2 541C365.3 541 319.7 541 274 541C228.3 541 182.7 541 137 541C91.3 541 45.7 541 22.8 541L0 541Z" fill="#404040"></path><path d="M0 393L22.8 386.5C45.7 380 91.3 367 137 365.2C182.7 363.3 228.3 372.7 274 364.5C319.7 356.3 365.3 330.7 411.2 324.7C457 318.7 503 332.3 548.8 340C594.7 347.7 640.3 349.3 686 354.8C731.7 360.3 777.3 369.7 823 367.7C868.7 365.7 914.3 352.3 937.2 345.7L960 339L960 541L937.2 541C914.3 541 868.7 541 823 541C777.3 541 731.7 541 686 541C640.3 541 594.7 541 548.8 541C503 541 457 541 411.2 541C365.3 541 319.7 541 274 541C228.3 541 182.7 541 137 541C91.3 541 45.7 541 22.8 541L0 541Z" fill="#333333"></path><path d="M0 441L22.8 428.7C45.7 416.3 91.3 391.7 137 378.3C182.7 365 228.3 363 274 366.3C319.7 369.7 365.3 378.3 411.2 384.2C457 390 503 393 548.8 402C594.7 411 640.3 426 686 423.2C731.7 420.3 777.3 399.7 823 396.5C868.7 393.3 914.3 407.7 937.2 414.8L960 422L960 541L937.2 541C914.3 541 868.7 541 823 541C777.3 541 731.7 541 686 541C640.3 541 594.7 541 548.8 541C503 541 457 541 411.2 541C365.3 541 319.7 541 274 541C228.3 541 182.7 541 137 541C91.3 541 45.7 541 22.8 541L0 541Z" fill="#262626"></path><path d="M0 445L22.8 450.3C45.7 455.7 91.3 466.3 137 471.8C182.7 477.3 228.3 477.7 274 476C319.7 474.3 365.3 470.7 411.2 465C457 459.3 503 451.7 548.8 444C594.7 436.3 640.3 428.7 686 426.5C731.7 424.3 777.3 427.7 823 424.2C868.7 420.7 914.3 410.3 937.2 405.2L960 400L960 541L937.2 541C914.3 541 868.7 541 823 541C777.3 541 731.7 541 686 541C640.3 541 594.7 541 548.8 541C503 541 457 541 411.2 541C365.3 541 319.7 541 274 541C228.3 541 182.7 541 137 541C91.3 541 45.7 541 22.8 541L0 541Z" fill="#191919"></path><path d="M0 464L22.8 464.2C45.7 464.3 91.3 464.7 137 462.8C182.7 461 228.3 457 274 457.7C319.7 458.3 365.3 463.7 411.2 469.5C457 475.3 503 481.7 548.8 484.5C594.7 487.3 640.3 486.7 686 481.3C731.7 476 777.3 466 823 460.7C868.7 455.3 914.3 454.7 937.2 454.3L960 454L960 541L937.2 541C914.3 541 868.7 541 823 541C777.3 541 731.7 541 686 541C640.3 541 594.7 541 548.8 541C503 541 457 541 411.2 541C365.3 541 319.7 541 274 541C228.3 541 182.7 541 137 541C91.3 541 45.7 541 22.8 541L0 541Z" fill="#0a0a0a"></path></svg>